# xmcd
#
# Track frame offsets:
#	151
#	13604
#	30707
#	49195
#	70531
#	86271
#	104867
#	121620
#	138836
#	152094
#	168084
#	181094
#	195324
#
# Disc length: 2775 seconds
#
# Revision: 1
# Processed by: cddbd v1.5.2PL0 Copyright (c) Steve Scherf et al.
# Submitted via: audiograbber 1.83.01
#
DISCID=960ad50d
DTITLE=Ronald Beauchamp - Écoute Ma Voix
DYEAR=1900
DGENRE=Country
TTITLE0=Paradis du V.T.T.(Ronald Beauchamp-Ronald Beauchamp)
TTITLE1=Pardonne-Moi(Ronald Beauchamp-Ronald Beauchamp)
TTITLE2=Le Métier Du Fermier(Ronald Beauchamp-Ronald Beauchamp)
TTITLE3=Écoute Ma Voix(Ronald Beauchamp-Ronald Beauchamp)
TTITLE4=Une Grosse Érable(Léopold Hébert-Léopold Hébert)
TTITLE5=Les Grands-Parents(Ronald Beauchamp-Ronald Beauchamp)
TTITLE6=Carnaval(Ronald Beauchamp-Ronald Beauchamp)
TTITLE7=La Vie D'un Mère(Armand Desrochers-Armand Desrochers)
TTITLE8=Les Gros Dan(Léopold Hébert-Léopold Hébert)
TTITLE9=Le Bûcheron(Léopold Hébert-Léopold Hébert)
TTITLE10=Bleus Sont Ces Yeux(Léopold Hébert-Léopold Hébert)
TTITLE11=Ces Beaux Jours(Léopold Hébert-Léopold Hébert)
TTITLE12=La Petite Rivière(Léopold Hébert-Léopold Hébert)
EXTD=
EXTT0=
EXTT1=
EXTT2=
EXTT3=
EXTT4=
EXTT5=
EXTT6=
EXTT7=
EXTT8=
EXTT9=
EXTT10=
EXTT11=
EXTT12=
PLAYORDER=
